<svg width="776" height="205" viewBox="0 0 776 205" fill="none" xmlns="http://www.w3.org/2000/svg">
<path d="M4.47035e-08 127.8H81.9C83.3 132 87.4 135.6 94.2 138.6C101 141.4 110.1 143.6 121.5 145.2C133.1 146.6 146.5 147.3 161.7 147.3C176.7 147.3 188.5 146.9 197.1 146.1C205.9 145.1 212.1 143.5 215.7 141.3C219.3 138.9 221.1 135.7 221.1 131.7C221.1 127.9 218.2 125 212.4 123C206.6 120.8 196.3 119.3 181.5 118.5C166.7 117.7 145.9 117.3 119.1 117.3C99.1 117.3 81.8 116.4 67.2 114.6C52.8 112.6 40.9 109.6 31.5 105.6C22.3 101.4 15.5 96.2 11.1 90C6.7 83.6 4.5 76 4.5 67.2C4.5 52 9.6 39.5 19.8 29.7C30.2 19.7 45.8 12.3 66.6 7.50004C87.6 2.50004 113.8 4.48227e-05 145.2 4.48227e-05C191.2 4.48227e-05 226.3 6.70004 250.5 20.1C274.9 33.3 287.1 52.4 287.1 77.4H209.4C208.4 70.8 202.2 65.8 190.8 62.4C179.4 58.8 163.2 57 142.2 57C121.4 57 105.9 58.2 95.7 60.6C85.7 63 80.7 67.1 80.7 72.9C80.7 75.9 82.1 78.3 84.9 80.1C87.7 81.9 92.5 83.4 99.3 84.6C106.3 85.6 116.1 86.3 128.7 86.7C141.3 87.1 157.3 87.3 176.7 87.3C198.1 87.3 216.3 88.4 231.3 90.6C246.3 92.6 258.4 95.7 267.6 99.9C277 104.1 283.8 109.5 288 116.1C292.2 122.5 294.3 130.1 294.3 138.9C294.3 154.1 289.5 166.5 279.9 176.1C270.3 185.7 255.1 192.8 234.3 197.4C213.5 202 186.3 204.3 152.7 204.3C133.7 204.3 116.2 203.2 100.2 201C84.4 198.8 70.3 195.6 57.9 191.4C45.5 187 35 181.7 26.4 175.5C17.8 169.1 11.2 162 6.6 154.2C2.2 146.2 4.47035e-08 137.4 4.47035e-08 127.8ZM543.199 6.30004C570.199 6.30004 592.499 8.90004 610.099 14.1C627.699 19.3 641.499 26.4 651.499 35.4C661.499 44.4 668.499 54.7 672.499 66.3C676.699 77.7 678.799 89.7 678.799 102.3C678.799 114.9 676.499 127 671.899 138.6C667.299 150 659.699 160.2 649.099 169.2C638.699 178.2 624.799 185.3 607.399 190.5C590.199 195.7 568.799 198.3 543.199 198.3H327.199V6.30004H543.199ZM402.199 138.3H540.199C551.399 138.3 560.899 137.6 568.699 136.2C576.499 134.6 582.699 132.3 587.299 129.3C592.099 126.3 595.499 122.6 597.499 118.2C599.699 113.6 600.799 108.3 600.799 102.3C600.799 96.3 599.699 91.1 597.499 86.7C595.499 82.1 592.099 78.3 587.299 75.3C582.699 72.3 576.499 70.1 568.699 68.7C560.899 67.1 551.399 66.3 540.199 66.3H402.199V138.3ZM775.915 153V198.3H699.715V153H775.915Z" fill="white"/>
</svg>
